Coordinates
version=1
nRows=11
nColumns=63
inDegrees=yes

Units are S.I. units (second, meters, Newtons, ...)
If the header above contains a line with 'inDegrees', this indicates whether rotational values are in degrees (yes) or radians (no).

endheader
time	pelvis_tilt	pelvis_list	pelvis_rotation	pelvis_tx	pelvis_ty	pelvis_tz	hip_flexion_r	hip_adduction_r	hip_rotation_r	knee_angle_r	knee_angle_r_beta	ankle_angle_r	subtalar_angle_r	mtp_angle_r	hip_flexion_l	hip_adduction_l	hip_rotation_l	knee_angle_l	knee_angle_l_beta	ankle_angle_l	subtalar_angle_l	mtp_angle_l	L5_S1_Flex_Ext	L5_S1_Lat_Bending	L5_S1_axial_rotation	L4_L5_Flex_Ext	L4_L5_Lat_Bending	L4_L5_axial_rotation	L3_L4_Flex_Ext	L3_L4_Lat_Bending	L3_L4_axial_rotation	L2_L3_Flex_Ext	L2_L3_Lat_Bending	L2_L3_axial_rotation	L1_L2_Flex_Ext	L1_L2_Lat_Bending	L1_L2_axial_rotation	L1_T12_Flex_Ext	L1_T12_Lat_Bending	L1_T12_axial_rotation	Abs_r3	Abs_r2	Abs_r1	Abs_t1	Abs_t2	neck_flexion	neck_bending	neck_rotation	arm_flex_r	arm_add_r	arm_rot_r	elbow_flex_r	pro_sup_r	wrist_flex_r	wrist_dev_r	arm_flex_l	arm_add_l	arm_rot_l	elbow_flex_l	pro_sup_l	wrist_flex_l	wrist_dev_l
2.100000	-2.588834	-5.630847	90.745393	0.243305	0.976873	0.271978	2.456058	-2.831260	-6.107317	2.488587	0.043434	22.950513	7.704658	0.000000	8.068127	5.491381	-3.825053	12.346333	0.215484	20.946323	-10.249439	0.000000	-0.061887	-0.220538	0.490564	-0.114931	-0.293316	0.521224	-0.101675	-0.536217	0.521224	-0.070731	-0.536217	0.429244	-0.057468	-0.449722	0.398583	-0.035362	-0.341614	0.367923	-0.442054	-2.494775	2.728371	0.000000	0.000000	14.743335	-3.067078	12.210961	-2.474475	-15.393398	24.065445	77.486684	83.544614	0.545026	17.863307	0.973321	-20.202080	24.415931	80.923251	90.740478	-14.030274	13.974265
2.116667	-2.578362	-5.604702	90.055733	0.243751	0.976318	0.271764	2.528917	-2.842569	-5.666362	2.520916	0.043998	22.946077	7.937638	0.000000	7.851567	5.502331	-4.031788	12.028012	0.209928	20.793893	-10.882265	0.000000	-0.067114	-0.199609	0.603491	-0.124637	-0.265479	0.641210	-0.110261	-0.485328	0.641210	-0.076704	-0.485328	0.528055	-0.062322	-0.407042	0.490337	-0.038349	-0.309194	0.452619	-0.479388	-2.258012	3.356438	0.000000	0.000000	15.860718	-2.772237	12.664453	-2.800278	-15.467108	24.443436	73.068030	86.048720	-0.026123	16.803412	1.180083	-20.056642	25.325480	75.586262	91.243775	-14.610621	14.600176
2.133333	-2.565468	-5.489308	89.336212	0.244317	0.975820	0.271007	2.449544	-2.849382	-5.178694	2.513967	0.043877	22.896627	8.117910	0.000000	7.428209	5.522694	-4.171629	11.561838	0.201792	20.624505	-11.548224	0.000000	-0.076953	-0.180846	0.721924	-0.142909	-0.240525	0.767044	-0.126426	-0.439709	0.767044	-0.087949	-0.439709	0.631684	-0.071458	-0.368781	0.586563	-0.043971	-0.280130	0.541443	-0.549667	-2.045765	4.015125	0.000000	0.000000	16.830929	-2.395062	13.058133	-2.850144	-15.512151	25.009997	68.774209	87.893242	-0.882968	15.362762	1.297235	-19.819801	26.150120	70.629285	91.094903	-14.999308	15.620463
2.150000	-2.537952	-5.283046	88.602243	0.244997	0.975403	0.269693	2.211611	-2.840756	-4.638750	2.468546	0.043084	22.807271	8.225576	0.000000	6.799119	5.541853	-4.221948	10.955950	0.191217	20.430749	-12.264563	0.000000	-0.090286	-0.162502	0.835034	-0.167670	-0.216127	0.887224	-0.148330	-0.395106	0.887224	-0.103187	-0.395106	0.730655	-0.083839	-0.331373	0.678465	-0.051589	-0.251715	0.626276	-0.644902	-1.838250	4.644210	0.000000	0.000000	17.644203	-2.000856	13.417663	-2.662799	-15.576984	25.800506	64.679737	88.944882	-1.893902	13.675555	1.257109	-19.521167	26.915113	66.130990	90.580694	-15.221784	16.741169
2.166667	-2.481985	-4.987465	87.907840	0.245729	0.975090	0.267817	1.806250	-2.801706	-4.074373	2.381737	0.041569	22.675676	8.234130	0.000000	5.976840	5.545793	-4.146973	10.235264	0.178639	20.212289	-13.016137	0.000000	-0.106318	-0.142851	0.926953	-0.197444	-0.189992	0.984887	-0.174670	-0.347329	0.984887	-0.121511	-0.347329	0.811083	-0.098727	-0.291303	0.753149	-0.060750	-0.221277	0.695214	-0.759421	-1.615964	5.155432	0.000000	0.000000	18.290514	-1.605543	13.782329	-2.319078	-15.684720	26.803768	60.856314	89.278661	-2.946864	11.979351	1.018588	-19.175082	27.656627	62.103764	89.882343	-15.311125	17.585352
2.183333	-2.395835	-4.605079	87.311293	0.246448	0.974909	0.265452	1.235028	-2.725504	-3.545384	2.256947	0.039391	22.509120	8.134043	0.000000	4.997647	5.528213	-3.931141	9.458544	0.165083	19.978274	-13.781695	0.000000	-0.125811	-0.122210	0.987342	-0.233643	-0.162540	1.049051	-0.206695	-0.297143	1.049051	-0.143789	-0.297143	0.863925	-0.116828	-0.249212	0.802216	-0.071888	-0.189304	0.740507	-0.898654	-1.382469	5.491302	0.000000	0.000000	18.761285	-1.192814	14.140084	-1.886579	-15.830685	28.020476	57.307817	89.099449	-3.903784	10.402426	0.627255	-18.779421	28.429280	58.486310	89.270734	-15.234946	17.845132
2.200000	-2.281736	-4.164297	86.774399	0.247243	0.974813	0.262606	0.536339	-2.617266	-3.003045	2.102520	0.036696	22.329438	7.945279	0.000000	3.863769	5.488175	-3.603698	8.571167	0.149595	19.709525	-14.556135	0.000000	-0.145518	-0.101496	1.027215	-0.270241	-0.134989	1.091416	-0.239071	-0.246776	1.091416	-0.166312	-0.246776	0.898813	-0.135128	-0.206970	0.834612	-0.083149	-0.157217	0.770411	-1.039418	-1.148138	5.713060	0.000000	0.000000	19.063054	-0.760857	14.489210	-1.498031	-15.946983	29.179404	54.088436	88.771809	-4.705828	9.182293	0.092137	-18.310937	29.090884	55.285626	88.980498	-15.036755	17.506565
2.216667	-2.144181	-3.685875	86.359325	0.248007	0.974778	0.259493	-0.252551	-2.476202	-2.438834	1.929355	0.033674	22.137553	7.570706	0.000000	2.668123	5.424245	-3.135880	7.683463	0.134102	19.428701	-15.357782	0.000000	-0.166456	-0.081310	1.051086	-0.309125	-0.108142	1.116779	-0.273470	-0.197696	1.116779	-0.190242	-0.197696	0.919701	-0.154571	-0.165807	0.854008	-0.095113	-0.125949	0.788315	-1.188976	-0.919790	5.845827	0.000000	0.000000	19.215310	-0.304398	14.761479	-1.227407	-15.959619	29.896286	51.164751	88.979652	-5.208890	8.253341	-0.405681	-17.764967	29.752853	52.362913	88.923426	-14.620393	16.509111
2.233333	-1.989268	-3.202046	86.080543	0.248705	0.974751	0.256251	-1.079847	-2.306356	-1.928669	1.749246	0.030530	21.967607	7.099366	0.000000	1.476926	5.335789	-2.562151	6.834240	0.119280	19.171888	-16.141548	0.000000	-0.186662	-0.062477	1.066335	-0.346649	-0.083095	1.132981	-0.306666	-0.151907	1.132981	-0.213335	-0.151907	0.933043	-0.173334	-0.127404	0.866397	-0.106658	-0.096777	0.799751	-1.333305	-0.706755	5.930637	0.000000	0.000000	19.244415	0.154258	14.893472	-1.074206	-15.849866	30.033166	48.512824	89.815175	-5.589797	7.599619	-0.742300	-17.159549	30.617126	49.644357	88.806564	-14.135596	14.850410
2.250000	-1.799232	-2.731593	85.945026	0.249245	0.974672	0.253061	-1.906521	-2.092273	-1.476576	1.567170	0.027352	21.843971	6.553742	0.000000	0.357723	5.200278	-1.953957	6.089116	0.106275	19.014847	-16.799525	0.000000	-0.206515	-0.041746	1.073770	-0.383519	-0.055523	1.140881	-0.339284	-0.101502	1.140881	-0.236026	-0.101502	0.939549	-0.191770	-0.085129	0.872438	-0.118003	-0.064665	0.805328	-1.475116	-0.472244	5.971987	0.000000	0.000000	19.189746	0.592959	14.893788	-1.065098	-15.915290	26.381971	46.766949	93.483395	-6.378288	7.366331	-0.856335	-16.485006	31.668964	47.099967	88.561062	-13.633107	12.681241
2.266667	-1.627848	-2.308020	85.957879	0.249744	0.974541	0.250026	-2.685546	-1.881373	-1.103767	1.385370	0.024179	21.792711	5.970927	0.000000	-0.639727	5.061526	-1.343081	5.454737	0.095203	18.955962	-17.281700	0.000000	-0.224162	-0.026734	1.078551	-0.416291	-0.035557	1.145961	-0.368275	-0.065002	1.145961	-0.256195	-0.065002	0.943732	-0.208157	-0.054516	0.876323	-0.128086	-0.041411	0.808914	-1.601165	-0.302423	5.998579	0.000000	0.000000	19.109965	0.998827	14.725629	-0.841055	-15.586224	25.916698	44.378355	94.579674	-6.977166	6.757845	-0.682145	-15.805287	33.018032	44.733618	88.122431	-13.246631	10.143338
